<svg width="182" height="215" viewBox="0 0 182 215" fill="none" xmlns="http://www.w3.org/2000/svg">
<path d="M179.317 41.424C178.508 40.4994 177.516 39.7519 176.404 39.2282C175.292 38.7044 174.085 38.4158 172.856 38.3804C153.771 37.8814 129.622 17.4743 113.655 9.46611C103.793 4.5348 97.2815 1.2833 92.3918 0.426767C91.3989 0.282093 90.3901 0.284895 89.398 0.435083C84.5083 1.29162 77.997 4.54312 68.1427 9.47443C52.1762 17.4743 28.027 37.8814 8.94206 38.3804C7.71273 38.4177 6.50416 38.7071 5.39126 39.2306C4.27836 39.7542 3.28485 40.5007 2.47232 41.424C0.78813 43.3294 -0.080825 45.8198 0.0524008 48.3594C4.15212 131.709 34.0476 183.293 86.5041 213.271C87.8679 214.045 89.3814 214.444 90.8866 214.444C92.3917 214.444 93.9052 214.045 95.2774 213.271C147.734 183.293 177.621 131.709 181.729 48.3594C181.87 45.8202 181.003 43.3279 179.317 41.424ZM137.605 74.2051L93.3398 139.526C91.7514 141.871 89.2567 143.426 86.7869 143.426C84.3087 143.426 81.5562 142.071 79.8182 140.333L48.617 109.123C47.5984 108.101 47.0264 106.716 47.0264 105.273C47.0264 103.83 47.5984 102.445 48.617 101.423L56.3259 93.6975C57.3504 92.6829 58.7341 92.1137 60.1761 92.1137C61.6181 92.1137 63.0017 92.6829 64.0263 93.6975L84.317 113.988L119.568 61.9559C120.384 60.7652 121.637 59.9456 123.055 59.676C124.473 59.4065 125.94 59.7089 127.135 60.5172L136.158 66.6377C137.35 67.452 138.171 68.705 138.443 70.1229C138.714 71.5409 138.413 73.0085 137.605 74.2051Z" fill="#3772FA"/>
</svg>
