<svg width="36" height="36" viewBox="0 0 36 36" fill="none" xmlns="http://www.w3.org/2000/svg">
<rect width="36" height="36" rx="7" fill="#E2E8F0"/>
<g clip-path="url(#clip0_4785_30174)">
<path d="M20.7886 8.20157C20.4252 7.83729 19.9912 7.54783 19.512 7.35021C19.0328 7.15258 18.5181 7.05078 17.9981 7.05078C17.4782 7.05078 16.9635 7.15258 16.4843 7.35021C16.0051 7.54783 15.5711 7.83729 15.2077 8.20157L14.368 9.04529L13.1665 9.03075C12.6464 9.02472 12.1303 9.12062 11.6486 9.31281C11.1669 9.505 10.7293 9.7896 10.3615 10.1499C9.99375 10.5102 9.70322 10.9388 9.50702 11.4107C9.31083 11.8826 9.21293 12.3881 9.21908 12.8976L9.23258 14.0746L8.37398 14.8971C8.00211 15.2531 7.70662 15.6783 7.50488 16.1477C7.30314 16.6171 7.19922 17.1213 7.19922 17.6306C7.19922 18.14 7.30314 18.6441 7.50488 19.1136C7.70662 19.583 8.00211 20.0082 8.37398 20.3641L9.23393 21.1867L9.21908 22.3637C9.21293 22.8731 9.31083 23.3787 9.50702 23.8506C9.70322 24.3224 9.99375 24.7511 10.3615 25.1114C10.7293 25.4717 11.1669 25.7563 11.6486 25.9485C12.1303 26.1406 12.6464 26.2365 13.1665 26.2305L14.368 26.2173L15.2077 27.0584C15.5711 27.4226 16.0051 27.7121 16.4843 27.9097C16.9635 28.1074 17.4782 28.2092 17.9981 28.2092C18.5181 28.2092 19.0328 28.1074 19.512 27.9097C19.9912 27.7121 20.4252 27.4226 20.7886 27.0584L21.6283 26.216L22.8298 26.2305C23.3499 26.2365 23.8659 26.1406 24.3476 25.9485C24.8293 25.7563 25.2669 25.4717 25.6347 25.1114C26.0025 24.7511 26.293 24.3224 26.4892 23.8506C26.6854 23.3787 26.7833 22.8731 26.7772 22.3637L26.7637 21.1867L27.6223 20.3641C27.9942 20.0082 28.2896 19.583 28.4914 19.1136C28.6931 18.6441 28.797 18.14 28.797 17.6306C28.797 17.1213 28.6931 16.6171 28.4914 16.1477C28.2896 15.6783 27.9942 15.2531 27.6223 14.8971L26.7623 14.0746L26.7772 12.8976C26.7833 12.3881 26.6854 11.8826 26.4892 11.4107C26.293 10.9388 26.0025 10.5102 25.6347 10.1499C25.2669 9.7896 24.8293 9.505 24.3476 9.31281C23.8659 9.12062 23.3499 9.02472 22.8298 9.03075L21.6283 9.04397L20.7886 8.20289V8.20157ZM21.176 16.1151L17.126 20.0825C17.0633 20.144 16.9888 20.1929 16.9068 20.2262C16.8248 20.2596 16.7369 20.2767 16.6481 20.2767C16.5593 20.2767 16.4714 20.2596 16.3894 20.2262C16.3074 20.1929 16.2329 20.144 16.1702 20.0825L14.1452 18.0988C14.0825 18.0373 14.0327 17.9643 13.9987 17.884C13.9648 17.8037 13.9473 17.7176 13.9473 17.6306C13.9473 17.5437 13.9648 17.4576 13.9987 17.3773C14.0327 17.2969 14.0825 17.224 14.1452 17.1625C14.208 17.101 14.2825 17.0522 14.3645 17.019C14.4465 16.9857 14.5344 16.9686 14.6231 16.9686C14.7119 16.9686 14.7998 16.9857 14.8818 17.019C14.9638 17.0522 15.0383 17.101 15.101 17.1625L16.6481 18.6793L20.2202 15.1788C20.347 15.0547 20.5189 14.9849 20.6981 14.9849C20.8774 14.9849 21.0493 15.0547 21.176 15.1788C21.3028 15.303 21.374 15.4714 21.374 15.647C21.374 15.8225 21.3028 15.9909 21.176 16.1151Z" fill="#475569"/>
</g>
<defs>
<clipPath id="clip0_4785_30174">
<rect width="21.6" height="21.1592" fill="white" transform="translate(7.19922 7.05078)"/>
</clipPath>
</defs>
</svg>
