<svg width="97" height="97" viewBox="0 0 97 97" fill="none" xmlns="http://www.w3.org/2000/svg">
<path d="M74.7557 57.1903H96.1784C95.7787 59.6561 95.2991 62.0423 94.5797 64.349C88.9842 83.2799 73.6366 96.8815 55.6512 96.8815C53.9726 96.8815 52.3739 96.8019 50.7752 96.5633C55.5713 95.1316 60.1276 92.8249 64.2043 89.4841C64.9237 88.9273 65.6431 88.291 66.3625 87.6547C76.1146 83.9162 84.0282 75.3258 87.945 64.349H79.392C76.4344 74.2917 70.8389 82.8026 63.5648 88.6092C58.9286 92.2681 53.7328 94.8929 48.0574 96.0861C45.5794 96.6429 43.1014 96.8815 40.4635 96.8815C17.7619 96.8815 -0.703125 75.1667 -0.703125 48.4407C-0.703125 21.7148 17.7619 0 40.4635 0C43.0214 0 45.5794 0.318166 48.0574 0.795414C53.7328 2.06808 59.0085 4.6134 63.5648 8.27231C70.9988 14.2379 76.7541 22.9875 79.6318 33.2483H88.1848C84.3479 21.8739 76.3544 12.9653 66.3625 9.22681C65.6431 8.59048 65.0036 7.95414 64.2842 7.39735C60.0476 4.13616 55.5713 1.74991 50.7752 0.318166C52.3739 0.0795414 53.9726 0 55.6512 0C73.8764 0 89.3839 13.9198 94.7395 33.2483C95.379 35.555 95.8586 37.9413 96.2583 40.4071H74.8357C74.436 37.9413 73.7965 35.555 73.0771 33.2483C68.8405 20.6808 59.4881 11.1358 48.0574 8.19277C45.6593 7.55644 43.1014 7.23827 40.4635 7.23827C37.7457 7.23827 35.0279 7.63598 32.5499 8.27231C17.0425 12.5675 5.45189 28.8735 5.45189 48.4407C5.45189 68.0079 17.0425 84.3139 32.5499 88.6092C35.1079 89.325 37.7457 89.6432 40.4635 89.6432C43.1014 89.6432 45.5794 89.325 48.0574 88.6887C59.2483 85.8252 68.5208 76.5984 72.8373 64.349C73.6366 62.0423 74.2761 59.6561 74.7557 57.1903Z" fill="url(#paint0_angular_4785_30314)"/>
<defs>
<radialGradient id="paint0_angular_4785_30314" cx="0" cy="0" r="1" gradientUnits="userSpaceOnUse" gradientTransform="translate(47.7776 48.4407) rotate(90) scale(48.4407 48.4807)">
<stop stop-color="#3772FF"/>
<stop offset="0.28125" stop-color="#BCD0FF"/>
</radialGradient>
</defs>
</svg>
