<svg width="17" height="15" viewBox="0 0 17 15" fill="none" xmlns="http://www.w3.org/2000/svg">
<path d="M8.36719 2.86563C11.2097 2.86563 13.7447 4.46313 14.9822 6.99063C14.5397 7.90563 13.9172 8.69313 13.1747 9.33063L14.2322 10.3881C15.2747 9.46563 16.0997 8.31063 16.6172 6.99063C15.3197 3.69813 12.1172 1.36563 8.36719 1.36563C7.41469 1.36563 6.49969 1.51563 5.63719 1.79313L6.87469 3.03063C7.36219 2.93313 7.85719 2.86563 8.36719 2.86563ZM7.56469 3.72062L9.11719 5.27313C9.54469 5.46063 9.88969 5.80563 10.0772 6.23313L11.6297 7.78563C11.6897 7.53063 11.7347 7.26063 11.7347 6.98313C11.7422 5.12313 10.2272 3.61563 8.36719 3.61563C8.08969 3.61563 7.82719 3.65313 7.56469 3.72062ZM0.874687 1.26812L2.88469 3.27813C1.66219 4.23813 0.694687 5.51313 0.117188 6.99063C1.41469 10.2831 4.61719 12.6156 8.36719 12.6156C9.50719 12.6156 10.6022 12.3981 11.6072 12.0006L14.1722 14.5656L15.2297 13.5081L1.93219 0.203125L0.874687 1.26812ZM6.49969 6.89313L8.45719 8.85063C8.42719 8.85813 8.39719 8.86563 8.36719 8.86563C7.33219 8.86563 6.49219 8.02563 6.49219 6.99063C6.49219 6.95313 6.49969 6.93063 6.49969 6.89313ZM3.94969 4.34312L5.26219 5.65563C5.08969 6.06813 4.99219 6.51813 4.99219 6.99063C4.99219 8.85063 6.50719 10.3656 8.36719 10.3656C8.83969 10.3656 9.28969 10.2681 9.69469 10.0956L10.4297 10.8306C9.76969 11.0106 9.07969 11.1156 8.36719 11.1156C5.52469 11.1156 2.98969 9.51813 1.75219 6.99063C2.27719 5.91813 3.04219 5.03312 3.94969 4.34312Z" fill="#F6F8FC"/>
</svg>
