<svg width="201" height="201" viewBox="0 0 201 201" fill="none" xmlns="http://www.w3.org/2000/svg">
<circle opacity="0.2" cx="100.5" cy="100.5" r="100.5" fill="#AFC7FF"/>
<circle opacity="0.5" cx="100" cy="101" r="73" fill="#AFC7FF"/>
<circle cx="103.5" cy="101.5" r="49.5" fill="#3772FA"/>
<path d="M90.3509 114.499C88.2458 114.499 86.439 113.966 84.9304 112.901C83.4304 111.827 82.2756 110.28 81.466 108.26C80.6648 106.232 80.2643 103.79 80.2643 100.935C80.2728 98.0795 80.6776 95.6506 81.4787 93.6477C82.2884 91.6364 83.4432 90.1023 84.9432 89.0455C86.4518 87.9886 88.2543 87.4602 90.3509 87.4602C92.4475 87.4602 94.2501 87.9886 95.7586 89.0455C97.2671 90.1023 98.4219 91.6364 99.2231 93.6477C100.033 95.6591 100.438 98.0881 100.438 100.935C100.438 103.798 100.033 106.244 99.2231 108.273C98.4219 110.293 97.2671 111.835 95.7586 112.901C94.2586 113.966 92.456 114.499 90.3509 114.499ZM90.3509 110.497C91.9873 110.497 93.2785 109.692 94.2245 108.081C95.179 106.462 95.6563 104.08 95.6563 100.935C95.6563 98.8551 95.439 97.108 95.0043 95.6932C94.5697 94.2784 93.956 93.2131 93.1634 92.4972C92.3708 91.7727 91.4333 91.4105 90.3509 91.4105C88.7231 91.4105 87.4361 92.2202 86.4901 93.8395C85.5441 95.4503 85.0668 97.8153 85.0583 100.935C85.0498 103.023 85.2586 104.778 85.6847 106.202C86.1194 107.625 86.733 108.699 87.5256 109.423C88.3182 110.139 89.26 110.497 90.3509 110.497ZM117.604 109.091V107.71C117.604 106.696 117.817 105.763 118.243 104.911C118.678 104.058 119.308 103.372 120.135 102.852C120.962 102.332 121.963 102.072 123.139 102.072C124.349 102.072 125.364 102.332 126.182 102.852C127 103.364 127.618 104.045 128.035 104.898C128.462 105.75 128.675 106.687 128.675 107.71V109.091C128.675 110.105 128.462 111.038 128.035 111.891C127.609 112.743 126.983 113.429 126.156 113.949C125.338 114.469 124.332 114.729 123.139 114.729C121.946 114.729 120.936 114.469 120.109 113.949C119.283 113.429 118.656 112.743 118.23 111.891C117.812 111.038 117.604 110.105 117.604 109.091ZM120.94 107.71V109.091C120.94 109.764 121.102 110.382 121.426 110.945C121.75 111.507 122.321 111.788 123.139 111.788C123.966 111.788 124.533 111.511 124.839 110.957C125.155 110.395 125.312 109.773 125.312 109.091V107.71C125.312 107.028 125.163 106.406 124.865 105.844C124.567 105.273 123.991 104.987 123.139 104.987C122.338 104.987 121.771 105.273 121.439 105.844C121.106 106.406 120.94 107.028 120.94 107.71ZM104.295 94.108V92.7273C104.295 91.7045 104.513 90.767 104.947 89.9148C105.382 89.0625 106.013 88.3807 106.839 87.8693C107.666 87.3494 108.668 87.0895 109.844 87.0895C111.045 87.0895 112.055 87.3494 112.874 87.8693C113.7 88.3807 114.322 89.0625 114.74 89.9148C115.158 90.767 115.366 91.7045 115.366 92.7273V94.108C115.366 95.1307 115.153 96.0682 114.727 96.9205C114.31 97.7642 113.687 98.4418 112.861 98.9531C112.034 99.4645 111.028 99.7202 109.844 99.7202C108.642 99.7202 107.628 99.4645 106.801 98.9531C105.983 98.4418 105.361 97.7599 104.935 96.9077C104.508 96.0554 104.295 95.1222 104.295 94.108ZM107.658 92.7273V94.108C107.658 94.7898 107.815 95.4119 108.131 95.9744C108.454 96.5284 109.026 96.8054 109.844 96.8054C110.662 96.8054 111.224 96.5284 111.531 95.9744C111.847 95.4119 112.004 94.7898 112.004 94.108V92.7273C112.004 92.0455 111.855 91.4233 111.557 90.8608C111.258 90.2898 110.687 90.0043 109.844 90.0043C109.034 90.0043 108.467 90.2898 108.143 90.8608C107.82 91.4318 107.658 92.054 107.658 92.7273ZM105.753 114L123.753 87.8182H126.949L108.949 114H105.753Z" fill="white"/>
<path d="M98.324 118.182V119.972H92.52V118.182H98.324ZM93.971 128V117.255C93.971 116.594 94.1074 116.045 94.3801 115.606C94.6571 115.167 95.0278 114.839 95.4923 114.621C95.9568 114.404 96.4724 114.295 97.0392 114.295C97.4398 114.295 97.7956 114.327 98.1067 114.391C98.4178 114.455 98.6479 114.513 98.797 114.564L98.3368 116.354C98.2388 116.324 98.1152 116.294 97.966 116.264C97.8169 116.23 97.6507 116.213 97.4675 116.213C97.0371 116.213 96.7324 116.317 96.5534 116.526C96.3787 116.731 96.2913 117.025 96.2913 117.408V128H93.971ZM103.574 128.192C102.589 128.192 101.739 127.987 101.023 127.578C100.312 127.165 99.7639 126.581 99.3804 125.827C98.9969 125.068 98.8051 124.175 98.8051 123.148C98.8051 122.138 98.9969 121.252 99.3804 120.489C99.7682 119.722 100.309 119.126 101.004 118.7C101.699 118.269 102.515 118.054 103.452 118.054C104.057 118.054 104.628 118.152 105.165 118.348C105.706 118.54 106.184 118.838 106.597 119.243C107.015 119.648 107.343 120.163 107.581 120.79C107.82 121.412 107.939 122.153 107.939 123.014V123.724H99.8918V122.164H105.721C105.717 121.721 105.621 121.327 105.434 120.982C105.246 120.632 104.984 120.357 104.647 120.157C104.315 119.957 103.927 119.857 103.484 119.857C103.011 119.857 102.596 119.972 102.238 120.202C101.88 120.428 101.601 120.726 101.4 121.097C101.204 121.463 101.104 121.866 101.1 122.305V123.666C101.1 124.237 101.204 124.727 101.413 125.136C101.622 125.541 101.914 125.852 102.289 126.07C102.664 126.283 103.103 126.389 103.606 126.389C103.942 126.389 104.247 126.342 104.52 126.249C104.792 126.151 105.029 126.008 105.229 125.82C105.429 125.633 105.581 125.401 105.683 125.124L107.843 125.366C107.707 125.937 107.447 126.436 107.064 126.862C106.684 127.284 106.199 127.612 105.606 127.847C105.014 128.077 104.336 128.192 103.574 128.192ZM113.704 128.192C112.719 128.192 111.869 127.987 111.153 127.578C110.441 127.165 109.894 126.581 109.51 125.827C109.127 125.068 108.935 124.175 108.935 123.148C108.935 122.138 109.127 121.252 109.51 120.489C109.898 119.722 110.439 119.126 111.134 118.7C111.829 118.269 112.645 118.054 113.582 118.054C114.187 118.054 114.758 118.152 115.295 118.348C115.836 118.54 116.314 118.838 116.727 119.243C117.145 119.648 117.473 120.163 117.711 120.79C117.95 121.412 118.069 122.153 118.069 123.014V123.724H110.022V122.164H115.851C115.847 121.721 115.751 121.327 115.564 120.982C115.376 120.632 115.114 120.357 114.777 120.157C114.445 119.957 114.057 119.857 113.614 119.857C113.141 119.857 112.726 119.972 112.368 120.202C112.01 120.428 111.731 120.726 111.53 121.097C111.334 121.463 111.234 121.866 111.23 122.305V123.666C111.23 124.237 111.334 124.727 111.543 125.136C111.752 125.541 112.044 125.852 112.419 126.07C112.794 126.283 113.233 126.389 113.735 126.389C114.072 126.389 114.377 126.342 114.65 126.249C114.922 126.151 115.159 126.008 115.359 125.82C115.559 125.633 115.711 125.401 115.813 125.124L117.973 125.366C117.837 125.937 117.577 126.436 117.194 126.862C116.814 127.284 116.329 127.612 115.736 127.847C115.144 128.077 114.466 128.192 113.704 128.192Z" fill="white"/>
</svg>
