<svg width="14" height="11" viewBox="0 0 14 11" fill="none" xmlns="http://www.w3.org/2000/svg">
<g clip-path="url(#clip0_4785_29964)">
<path fill-rule="evenodd" clip-rule="evenodd" d="M0.117188 0.242188H19.1172V1.01172H0.117188V0.242188ZM0.117188 1.78125H19.1172V2.55078H0.117188V1.78125ZM0.117188 3.31836H19.1172V4.08984H0.117188V3.31836ZM0.117188 4.85742H19.1172V5.62695H0.117188V4.85742ZM0.117188 6.39648H19.1172V7.16602H0.117188V6.39648ZM0.117188 7.93359H19.1172V8.70312H0.117188V7.93359ZM0.117188 9.47266H19.1172V10.2422H0.117188V9.47266Z" fill="#BD3D44"/>
<path fill-rule="evenodd" clip-rule="evenodd" d="M0.117188 1.01172H19.1172V1.78125H0.117188V1.01172ZM0.117188 2.55078H19.1172V3.31836H0.117188V2.55078ZM0.117188 4.08789H19.1172V4.85742H0.117188V4.08789ZM0.117188 5.62695H19.1172V6.39648H0.117188V5.62695ZM0.117188 7.16602H19.1172V7.93555H0.117188V7.16602ZM0.117188 8.70313H19.1172V9.47266H0.117188V8.70313Z" fill="white"/>
<path fill-rule="evenodd" clip-rule="evenodd" d="M0.117188 0.242188H7.7168V5.62695H0.117188V0.242188Z" fill="#192F5D"/>
<path fill-rule="evenodd" clip-rule="evenodd" d="M0.75 0.472656L0.820312 0.685547H1.04297L0.863281 0.816406L0.931641 1.03125L0.75 0.898437L0.570313 1.0293L0.638672 0.816406L0.457031 0.685547H0.683594L0.75 0.472656ZM2.01758 0.472656L2.08594 0.685547H2.31055L2.12891 0.816406L2.19727 1.03125L2.01758 0.898437L1.83594 1.0293L1.9043 0.816406L1.72461 0.685547H1.94727L2.01758 0.472656ZM3.2832 0.472656L3.35352 0.685547H3.57422L3.39453 0.816406L3.46289 1.03125L3.28125 0.898437L3.10156 1.0293L3.16992 0.816406L2.98828 0.685547H3.21289L3.2832 0.472656ZM4.55078 0.472656L4.61914 0.685547H4.84375L4.66211 0.816406L4.73242 1.03125L4.55078 0.898437L4.36914 1.0293L4.43945 0.816406L4.25781 0.685547H4.48047L4.55078 0.472656ZM5.81641 0.472656L5.88672 0.685547H6.10938L5.92969 0.816406L5.99805 1.03125L5.81641 0.898437L5.63672 1.0293L5.70508 0.816406L5.52539 0.685547H5.74805L5.81641 0.472656ZM7.08398 0.472656L7.15234 0.685547H7.37695L7.19531 0.816406L7.26562 1.03125L7.08398 0.898437L6.90234 1.0293L6.97266 0.816406L6.79102 0.685547H7.01563L7.08398 0.472656ZM1.38477 1.01172L1.45312 1.22461H1.67773L1.49609 1.35547L1.5625 1.56836L1.38672 1.4375L1.20508 1.56836L1.26953 1.35547L1.09375 1.22461H1.31641L1.38477 1.01172ZM2.65039 1.01172L2.7207 1.22461H2.94336L2.76172 1.35547L2.83203 1.56836L2.65039 1.4375L2.46875 1.56836L2.53906 1.35547L2.35742 1.22461H2.58203L2.65039 1.01172ZM3.91797 1.01172L3.98633 1.22461H4.21094L4.0293 1.35547L4.09766 1.56836L3.91797 1.4375L3.73633 1.56836L3.80469 1.35547L3.625 1.22461H3.84766L3.91797 1.01172ZM5.18359 1.01172L5.25391 1.22461H5.47656L5.29492 1.35547L5.36523 1.56836L5.18359 1.4375L5.00391 1.56836L5.07227 1.35547L4.89062 1.22461H5.11719L5.18359 1.01172ZM6.45117 1.01172L6.51953 1.22461H6.74414L6.5625 1.35547L6.63086 1.56836L6.45117 1.4375L6.26953 1.56836L6.33789 1.35547L6.1582 1.22461H6.38086L6.45117 1.01172ZM0.75 1.54883L0.820312 1.76562H1.04297L0.863281 1.89648L0.931641 2.10937L0.75 1.97656L0.570313 2.10937L0.638672 1.89453L0.457031 1.76367H0.683594L0.75 1.54883ZM2.01758 1.54883L2.08594 1.76367H2.31055L2.12891 1.89453L2.19727 2.10742L2.01758 1.97461L1.83594 2.10742L1.9043 1.89258L1.72461 1.76172H1.94727L2.01758 1.54883ZM3.2832 1.54883L3.35352 1.76367H3.57422L3.39453 1.89453L3.46289 2.10742L3.28125 1.97461L3.10156 2.10742L3.16992 1.89258L2.98828 1.76172H3.21289L3.2832 1.54883ZM4.55078 1.54883L4.61914 1.76367H4.84375L4.66211 1.89453L4.73242 2.10742L4.55078 1.97461L4.36914 2.10742L4.43945 1.89258L4.25781 1.76172H4.48047L4.55078 1.54883ZM5.81641 1.54883L5.88672 1.76367H6.10938L5.92969 1.89453L5.99805 2.10742L5.81641 1.97461L5.63672 2.10742L5.70508 1.89258L5.52539 1.76172H5.74805L5.81641 1.54883ZM7.08398 1.54883L7.15234 1.76367H7.37695L7.19531 1.89453L7.26562 2.10742L7.08398 1.97461L6.90234 2.10742L6.97266 1.89258L6.79102 1.76172H7.01563L7.08398 1.54883ZM1.38477 2.08789L1.45312 2.30078H1.67773L1.49609 2.43164L1.56445 2.64648L1.38477 2.51367L1.20312 2.64453L1.27148 2.43164L1.0918 2.30078H1.31445L1.38477 2.08789ZM2.65039 2.08789L2.7207 2.30078H2.94336L2.76172 2.43164L2.83203 2.64648L2.65039 2.51367L2.46875 2.64453L2.53906 2.43164L2.35742 2.30078H2.58203L2.65039 2.08789ZM3.91797 2.08789L3.98633 2.30078H4.21094L4.0293 2.43164L4.09766 2.64648L3.91797 2.51367L3.73633 2.64453L3.80469 2.43164L3.625 2.30078H3.84766L3.91797 2.08789ZM5.18359 2.08789L5.25391 2.30078H5.47656L5.29688 2.43164L5.36523 2.64648L5.18359 2.51367L5.00391 2.64453L5.07227 2.43164L4.89062 2.30078H5.11719L5.18359 2.08789ZM6.45117 2.08789L6.51953 2.30078H6.74414L6.5625 2.43164L6.63086 2.64648L6.45117 2.51367L6.26953 2.64453L6.33789 2.43164L6.1582 2.30078H6.38086L6.45117 2.08789ZM0.75 2.62695L0.820312 2.83984H1.04297L0.863281 2.9707L0.931641 3.18555L0.75 3.05273L0.570313 3.18359L0.638672 2.9707L0.457031 2.83984H0.683594L0.75 2.62695ZM2.01758 2.62695L2.08594 2.83984H2.31055L2.12891 2.9707L2.19727 3.18359L2.01758 3.05273L1.83594 3.18359L1.9043 2.9707L1.72461 2.83984H1.94727L2.01758 2.62695ZM3.2832 2.62695L3.35352 2.83984H3.57422L3.39453 2.9707L3.46289 3.18555L3.28125 3.05273L3.10156 3.18359L3.16992 2.9707L2.98828 2.83984H3.21289L3.2832 2.62695ZM4.55078 2.62695L4.61914 2.83984H4.84375L4.66211 2.9707L4.73242 3.18555L4.55078 3.05273L4.36914 3.18359L4.43945 2.9707L4.25781 2.83984H4.48047L4.55078 2.62695ZM5.81641 2.62695L5.88672 2.83984H6.10938L5.92969 2.9707L5.99805 3.18555L5.81641 3.05273L5.63672 3.18359L5.70508 2.9707L5.52539 2.83984H5.74805L5.81641 2.62695ZM7.08398 2.62695L7.15234 2.83984H7.37695L7.19531 2.9707L7.26562 3.18555L7.08398 3.05273L6.90234 3.18359L6.97266 2.9707L6.79102 2.83984H7.01563L7.08398 2.62695ZM1.38477 3.16601L1.45312 3.3789H1.67773L1.49609 3.50976L1.56445 3.72265L1.38477 3.58984L1.20312 3.72265L1.27148 3.50781L1.0918 3.37695H1.31445L1.38477 3.16601ZM2.65039 3.16601L2.7207 3.3789H2.94336L2.76172 3.50976L2.83203 3.72265L2.65039 3.58984L2.46875 3.72265L2.53906 3.50781L2.35742 3.37695H2.58203L2.65039 3.16601ZM3.91797 3.16601L3.98633 3.3789H4.21094L4.0293 3.50976L4.09766 3.72265L3.91797 3.58984L3.73633 3.72265L3.80469 3.50781L3.625 3.37695H3.84766L3.91797 3.16601ZM5.18359 3.16601L5.25391 3.3789H5.47656L5.29688 3.50976L5.36523 3.72265L5.18359 3.58984L5.00391 3.72265L5.07227 3.50781L4.89062 3.37695H5.11719L5.18359 3.16601ZM6.45117 3.16601L6.51953 3.3789H6.74414L6.5625 3.50976L6.63086 3.72265L6.45117 3.58984L6.26953 3.72265L6.33789 3.50781L6.1582 3.37695H6.38086L6.45117 3.16601ZM0.75 3.70312L0.820312 3.91797H1.04297L0.863281 4.04883L0.931641 4.25976L0.75 4.1289L0.570313 4.25976L0.638672 4.04687L0.457031 3.91601H0.683594L0.75 3.70312ZM2.01758 3.70312L2.08594 3.91797H2.31055L2.12891 4.04883L2.19922 4.25976L2.01758 4.1289L1.83594 4.25976L1.90625 4.04687L1.72461 3.91601H1.94727L2.01758 3.70312ZM3.2832 3.70312L3.35352 3.91797H3.57422L3.39453 4.04883L3.46289 4.25976L3.28125 4.1289L3.10156 4.25976L3.16992 4.04687L2.98828 3.91601H3.21289L3.2832 3.70312ZM4.55078 3.70312L4.61914 3.91797H4.84375L4.66211 4.04883L4.73242 4.25976L4.55078 4.1289L4.36914 4.25976L4.43945 4.04687L4.25781 3.91601H4.48047L4.55078 3.70312ZM5.81641 3.70312L5.88672 3.91797H6.10938L5.92969 4.04883L5.99805 4.25976L5.81641 4.1289L5.63672 4.25976L5.70508 4.04687L5.52539 3.91601H5.74805L5.81641 3.70312ZM7.08398 3.70312L7.15234 3.91797H7.37695L7.19531 4.04883L7.26562 4.25976L7.08398 4.1289L6.90234 4.25976L6.97266 4.04687L6.79102 3.91601H7.01563L7.08398 3.70312ZM1.38477 4.24219L1.45312 4.45508H1.67773L1.49609 4.58594L1.56445 4.80078L1.38477 4.66797L1.20312 4.79883L1.27148 4.58594L1.0918 4.45508H1.31445L1.38477 4.24219ZM2.65039 4.24219L2.7207 4.45508H2.94336L2.76172 4.58594L2.83203 4.80078L2.65039 4.66797L2.46875 4.79883L2.53906 4.58594L2.35742 4.45508H2.58203L2.65039 4.24219ZM3.91797 4.24219L3.98633 4.45508H4.21094L4.0293 4.58594L4.09766 4.80078L3.91797 4.66797L3.73633 4.79883L3.80469 4.58594L3.625 4.45508H3.84766L3.91797 4.24219ZM5.18359 4.24219L5.25391 4.45508H5.47656L5.29688 4.58594L5.36523 4.80078L5.18359 4.66797L5.00391 4.79883L5.07227 4.58594L4.89062 4.45508H5.11719L5.18359 4.24219ZM6.45117 4.24219L6.51953 4.45508H6.74414L6.5625 4.58594L6.63086 4.80078L6.45117 4.66797L6.26953 4.79883L6.33789 4.58594L6.1582 4.45508H6.38086L6.45117 4.24219ZM0.75 4.78125L0.820312 4.99414H1.04297L0.863281 5.125L0.931641 5.33789L0.75 5.20703L0.570313 5.33789L0.638672 5.12304L0.457031 4.99219H0.683594L0.75 4.78125ZM2.01758 4.78125L2.08594 4.99414H2.31055L2.12891 5.125L2.19922 5.33789L2.01758 5.20703L1.83594 5.33789L1.90625 5.12304L1.72461 4.99219H1.94727L2.01758 4.78125ZM3.2832 4.78125L3.35352 4.99414H3.57422L3.39844 5.125L3.4668 5.33789L3.28516 5.20703L3.10547 5.33789L3.17383 5.12304L2.99219 4.99219H3.2168L3.2832 4.78125ZM4.55078 4.78125L4.61914 4.99414H4.84375L4.66211 5.125L4.73242 5.33789L4.55078 5.20703L4.36914 5.33789L4.43945 5.12304L4.25781 4.99219H4.48047L4.55078 4.78125ZM5.81641 4.78125L5.88672 4.99414H6.10938L5.92969 5.125L5.99805 5.33789L5.81641 5.20703L5.63672 5.33789L5.70508 5.12304L5.52539 4.99219H5.74805L5.81641 4.78125ZM7.08398 4.78125L7.15234 4.99414H7.37695L7.19531 5.125L7.26562 5.33789L7.08398 5.20703L6.90234 5.33789L6.97266 5.12304L6.79102 4.99219H7.01563L7.08398 4.78125Z" fill="white"/>
</g>
<defs>
<clipPath id="clip0_4785_29964">
<rect x="0.117188" y="0.242188" width="13.3333" height="10" rx="2" fill="white"/>
</clipPath>
</defs>
</svg>
