<svg width="33" height="32" viewBox="0 0 33 32" fill="none" xmlns="http://www.w3.org/2000/svg">
<path d="M28.2263 11.0752C28.2129 10.0654 28.0238 9.0656 27.6676 8.12056C27.3588 7.32343 26.887 6.59949 26.2825 5.995C25.678 5.39051 24.9541 4.91876 24.157 4.6099C23.2241 4.25971 22.2385 4.07035 21.2423 4.0499C19.9596 3.99256 19.553 3.97656 16.297 3.97656C13.041 3.97656 12.6236 3.97656 11.3503 4.0499C10.3545 4.0705 9.36943 4.25985 8.43697 4.6099C7.63971 4.91855 6.91566 5.39022 6.31115 5.99474C5.70663 6.59926 5.23495 7.32331 4.9263 8.12056C4.57541 9.05274 4.38647 10.038 4.36764 11.0339C4.3103 12.3179 4.29297 12.7246 4.29297 15.9806C4.29297 19.2366 4.29297 19.6526 4.36764 20.9272C4.38764 21.9246 4.57564 22.9086 4.9263 23.8432C5.23547 24.6402 5.7075 25.364 6.31222 25.9683C6.91694 26.5725 7.64105 27.044 8.4383 27.3526C9.36821 27.7168 10.3535 27.9197 11.3516 27.9526C12.6356 28.0099 13.0423 28.0272 16.2983 28.0272C19.5543 28.0272 19.9716 28.0272 21.245 27.9526C22.2412 27.9329 23.2268 27.744 24.1596 27.3939C24.9566 27.0847 25.6803 26.6128 26.2848 26.0084C26.8892 25.4039 27.3611 24.6802 27.6703 23.8832C28.021 22.9499 28.209 21.9659 28.229 20.9672C28.2863 19.6846 28.3036 19.2779 28.3036 16.0206C28.301 12.7646 28.301 12.3512 28.2263 11.0752ZM16.289 22.1379C12.8836 22.1379 10.125 19.3792 10.125 15.9739C10.125 12.5686 12.8836 9.8099 16.289 9.8099C17.9238 9.8099 19.4916 10.4593 20.6476 11.6153C21.8036 12.7713 22.453 14.3391 22.453 15.9739C22.453 17.6087 21.8036 19.1765 20.6476 20.3325C19.4916 21.4885 17.9238 22.1379 16.289 22.1379ZM22.6983 11.0192C22.5095 11.0194 22.3225 10.9823 22.1481 10.9102C21.9736 10.838 21.8151 10.7321 21.6816 10.5986C21.5481 10.4651 21.4422 10.3066 21.37 10.1321C21.2979 9.95768 21.2608 9.7707 21.261 9.5819C21.261 9.39323 21.2981 9.20641 21.3703 9.03211C21.4425 8.8578 21.5484 8.69943 21.6818 8.56602C21.8152 8.43261 21.9735 8.32679 22.1478 8.25459C22.3222 8.18239 22.509 8.14523 22.6976 8.14523C22.8863 8.14523 23.0731 8.18239 23.2474 8.25459C23.4217 8.32679 23.5801 8.43261 23.7135 8.56602C23.8469 8.69943 23.9527 8.8578 24.0249 9.03211C24.0971 9.20641 24.1343 9.39323 24.1343 9.5819C24.1343 10.3766 23.4916 11.0192 22.6983 11.0192Z" fill="#5F8EFE"/>
<path d="M16.2892 19.9768C18.5005 19.9768 20.2932 18.1841 20.2932 15.9728C20.2932 13.7614 18.5005 11.9688 16.2892 11.9688C14.0778 11.9688 12.2852 13.7614 12.2852 15.9728C12.2852 18.1841 14.0778 19.9768 16.2892 19.9768Z" fill="#5F8EFE"/>
</svg>
